HIERARCHY
ROOT Hips
{
	OFFSET	0.00	0.00	0.00
	CHANNELS 6 Xposition Yposition Zposition Zrotation Xrotation Yrotation
	JOINT LeftUpLeg
	{
		OFFSET	 0.126116	-0.065224	 0.014019
		CHANNELS 3 Zrotation Xrotation Yrotation
		JOINT LeftLeg
		{
			OFFSET	 0.000000	 0.569914	 0.000000
			CHANNELS 3 Zrotation Xrotation Yrotation
			JOINT LeftFoot
			{
				OFFSET	 0.000000	 0.544423	 0.000000
				CHANNELS 3 Zrotation Xrotation Yrotation
				JOINT LeftToeBase
				{
					OFFSET	 0.000000	 0.207117	 0.000000
					CHANNELS 3 Zrotation Xrotation Yrotation
					End Site
					{
						OFFSET	 0.000000	 0.207117	 0.000000
					}
				}
			}
		}
	}
	JOINT RightUpLeg
	{
		OFFSET	-0.124023	-0.065224	 0.008373
		CHANNELS 3 Zrotation Xrotation Yrotation
		JOINT RightLeg
		{
			OFFSET	 0.000000	 0.570047	 0.000000
			CHANNELS 3 Zrotation Xrotation Yrotation
			JOINT RightFoot
			{
				OFFSET	 0.000000	 0.544354	 0.000000
				CHANNELS 3 Zrotation Xrotation Yrotation
				JOINT RightToeBase
				{
					OFFSET	 0.000000	 0.207540	 0.000000
					CHANNELS 3 Zrotation Xrotation Yrotation
					End Site
					{
						OFFSET	 0.000000	 0.207540	 0.000000
					}
				}
			}
		}
	}
	JOINT Spine
	{
		OFFSET	 0.000184	 0.117403	 0.007763
		CHANNELS 3 Zrotation Xrotation Yrotation
		JOINT Spine1
		{
			OFFSET	 0.000000	 0.137269	 0.000000
			CHANNELS 3 Zrotation Xrotation Yrotation
			JOINT Spine2
			{
				OFFSET	 0.000000	 0.156879	 0.000000
				CHANNELS 3 Zrotation Xrotation Yrotation
				JOINT LeftShoulder
				{
					OFFSET	 0.080501	 0.160143	 0.002496
					CHANNELS 3 Zrotation Xrotation Yrotation
					JOINT LeftArm
					{
						OFFSET	 0.000000	 0.164363	 0.000000
						CHANNELS 3 Zrotation Xrotation Yrotation
						JOINT LeftForeArm
						{
							OFFSET	 0.000000	 0.364576	 0.000000
							CHANNELS 3 Zrotation Xrotation Yrotation
							JOINT LeftHand
							{
								OFFSET	 0.000000	 0.360812	 0.000000
								CHANNELS 3 Zrotation Xrotation Yrotation
								JOINT LeftHandIndex1
								{
									OFFSET	 0.000000	 0.086006	 0.000000
									CHANNELS 3 Zrotation Xrotation Yrotation
									JOINT LeftHandIndex2
									{
										OFFSET	 0.000000	 0.047237	 0.000000
										CHANNELS 3 Zrotation Xrotation Yrotation
										JOINT LeftHandIndex3
										{
											OFFSET	-0.004284	 0.038165	 0.000551
											CHANNELS 3 Zrotation Xrotation Yrotation
											End Site
											{
												OFFSET	-0.004284	 0.038165	 0.000551
											}
										}
									}
								}
							}
						}
					}
				}
				JOINT Neck
				{
					OFFSET	 0.000000	 0.176489	 0.000000
					CHANNELS 3 Zrotation Xrotation Yrotation
					JOINT Head
					{
						OFFSET	 0.000000	 0.077941	 0.001747
						CHANNELS 3 Zrotation Xrotation Yrotation
						End Site
						{
							OFFSET	 0.000000	 0.077941	 0.001747
						}
					}
				}
				JOINT RightShoulder
				{
					OFFSET	-0.080363	 0.159706	-0.000306
					CHANNELS 3 Zrotation Xrotation Yrotation
					JOINT RightArm
					{
						OFFSET	 0.000000	 0.164196	 0.000000
						CHANNELS 3 Zrotation Xrotation Yrotation
						JOINT RightForeArm
						{
							OFFSET	 0.000000	 0.365611	 0.000000
							CHANNELS 3 Zrotation Xrotation Yrotation
							JOINT RightHand
							{
								OFFSET	 0.000000	 0.360648	 0.000000
								CHANNELS 3 Zrotation Xrotation Yrotation
								JOINT RightHandIndex1
								{
									OFFSET	 0.000000	 0.069977	 0.000000
									CHANNELS 3 Zrotation Xrotation Yrotation
									JOINT RightHandIndex2
									{
										OFFSET	 0.000000	 0.052305	 0.000000
										CHANNELS 3 Zrotation Xrotation Yrotation
										JOINT RightHandIndex3
										{
											OFFSET	 0.009002	 0.042196	 0.000782
											CHANNELS 3 Zrotation Xrotation Yrotation
											End Site
											{
												OFFSET	 0.009002	 0.042196	 0.000782
											}
										}
									}
								}
							}
						}
					}
				}
			}
		}
	}
}
MOTION
Frames:    5
Frame Time: 0.03333334
-0.044003	 1.232765	-1.256368	-4.076608	 1.307839	-173.922600	 176.636700	 7.241542	-23.249440	 4.366632	-29.874230	 6.274704	 8.421124	 81.694560	-1.405213	 1.524717	 31.394800	-2.817521	 162.948200	 24.136150	 28.685210	-6.055268	-54.241300	 6.237218	 7.289688	 75.718990	-5.694504	-1.673951	 33.202090	 2.888898	-1.425472	 8.634725	 7.738466	-5.630189	-1.865985	 4.071858	 5.423662	-1.479756	-15.784050	-121.354800	 7.578167	 94.112290	 19.954900	 45.805350	-3.791074	 5.078983	-0.261207	-0.054931	 27.145680	 11.260090	 33.151640	 4.644152	 18.922040	-1.665624	-5.863777	 21.528390	 2.380022	 5.334000	 4.397901	-0.167987	-0.171200	-5.022734	-0.131692	-2.054576	-2.533715	-6.941404	 118.402400	-0.104479	-90.783550	 16.942880	 46.970100	-17.456170	-19.237250	-0.741729	-0.084586	 2.205288	 8.515639	 21.920040	-2.365790	 25.453810	 1.297708	 15.719490	 44.455730	-11.634780	-8.530983	 23.449750	-1.191669
-0.043761	 1.231562	-1.271009	-4.066880	 1.046394	-173.718400	 176.670200	 6.729884	-23.014160	 4.363051	-29.854030	 6.477437	 9.875533	 82.217320	-3.106999	 1.539191	 31.574090	-2.824382	 163.292800	 20.797630	 28.681980	-6.016142	-54.342980	 6.494815	 23.317600	 82.128200	-19.303910	-1.680252	 33.277280	 2.892059	-1.663522	 8.122876	 8.517666	-7.646380	-10.258300	 3.317649	 6.631867	 2.803601	-15.887240	-121.350400	 7.757611	 94.201400	 12.400380	 47.870830	 1.810269	 5.077416	-0.259729	-0.034883	 29.427430	 11.465080	 34.177060	 4.667359	 18.998070	-1.678026	-5.863582	 21.595190	 2.387398	 5.336867	 4.465085	-0.166770	-0.174479	-5.037994	-0.116599	-1.988943	-2.520810	-6.939079	 118.377600	-0.210338	-90.733920	 21.289890	 46.450270	-20.322790	-17.734310	-0.684616	-0.085953	 3.825403	 10.030960	 20.584720	-2.282677	 24.828450	 1.253969	 15.566940	 43.845140	-11.396500	-8.532801	 22.822050	-1.150075
-0.043375	 1.231977	-1.291095	-3.990089	 0.879393	-173.486300	 176.705700	 5.437552	-22.696340	 4.206682	-28.961220	 6.634210	 11.312690	 82.516360	-4.902544	 1.555750	 31.778370	-2.832281	 164.383600	 15.188470	 28.311200	-5.626036	-52.511620	 7.053412	 96.526430	 85.708370	-89.403070	-1.687445	 33.362960	 2.895676	-2.232149	 5.819614	 9.397573	-9.244154	-18.176120	 2.460140	 7.547554	 6.940359	-16.021790	-121.345800	 7.962101	 94.303020	 1.259304	 49.589250	 10.371050	 5.081007	-0.258220	-0.011946	 32.142510	 11.713930	 35.347950	 4.693836	 19.084700	-1.692205	-5.863370	 21.671300	 2.395805	 5.340134	 4.541640	-0.165387	-0.178211	-5.055382	-0.099401	-1.912774	-2.488075	-6.915689	 118.349400	-0.330966	-90.677450	 28.133710	 45.039430	-24.888170	-17.499560	-0.674606	-0.106022	 6.734586	 11.798830	 18.612480	-2.189088	 24.115620	 1.205593	 15.399190	 43.148670	-11.130550	-8.534266	 22.106630	-1.102923
-0.043049	 1.233754	-1.306237	-3.894565	 1.000175	-173.327400	 176.719900	 3.890659	-22.438860	 3.971633	-27.589490	 6.682870	 12.026590	 82.390340	-5.900090	 1.567114	 31.918080	-2.837733	 165.623700	 10.031110	 27.858920	-5.049359	-49.491570	 7.681873	 137.399400	 82.983480	-128.060100	-1.692372	 33.421550	 2.898160	-2.675294	 3.104550	 9.932950	-9.766718	-21.725760	 2.102864	 7.854625	 8.960735	-16.040190	-121.342800	 8.101965	 94.372490	-7.415209	 49.961700	 17.188030	 5.088435	-0.257536	 0.003713	 34.052740	 11.816210	 36.025200	 4.711965	 19.143930	-1.701930	-5.863233	 21.723350	 2.401557	 5.342366	 4.593993	-0.164443	-0.180760	-5.067274	-0.087640	-1.859488	-2.449124	-6.880464	 118.330200	-0.413495	-90.638820	 33.588630	 43.454780	-28.462460	-18.433500	-0.708682	-0.132923	 9.455801	 13.003200	 16.943480	-2.125749	 23.628010	 1.173390	 15.288070	 42.671980	-10.951960	-8.534896	 21.617290	-1.070819
-0.042724	 1.236420	-1.320283	-3.785725	 1.374388	-173.186600	 176.717500	 1.909813	-22.180330	 3.660130	-25.716640	 6.686689	 12.421810	 81.966860	-6.569022	 1.577319	 32.043200	-2.842650	 167.100200	 4.347551	 27.404210	-4.337866	-45.168730	 8.376733	 150.014100	 80.066800	-138.735000	-1.696790	 33.474020	 2.900390	-3.015010	 0.264347	 10.325950	-9.932209	-23.826670	 1.947007	 7.976096	 10.355640	-15.956340	-121.340200	 8.227195	 94.434740	-15.379930	 49.587070	 23.499070	 5.100219	-0.257103	 0.017764	 35.777250	 11.768850	 36.454690	 4.728215	 19.196980	-1.710659	-5.863115	 21.769960	 2.406711	 5.344366	 4.640880	-0.163600	-0.183041	-5.077924	-0.077108	-1.810522	-2.395964	-6.827095	 118.313000	-0.487410	-90.604260	 38.534590	 41.670340	-31.597720	-19.785450	-0.758196	-0.164347	 12.286600	 14.052220	 15.155870	-2.069470	 23.191260	 1.145145	 15.190970	 42.244800	-10.794220	-8.535212	 21.179000	-1.042161
